<svg width="14" height="16" viewBox="0 0 14 16" fill="none" xmlns="http://www.w3.org/2000/svg">
<path d="M13.7692 1.84615V9.84615C13.7694 9.93052 13.7522 10.014 13.7188 10.0915C13.6853 10.1689 13.6363 10.2387 13.5748 10.2964C13.5132 10.3541 13.4405 10.3985 13.3611 10.4269C13.2816 10.4553 13.1972 10.4671 13.113 10.4615C12.9548 10.4479 12.8075 10.3749 12.7009 10.2572C12.5943 10.1395 12.5363 9.98574 12.5384 9.82692V1.84615C12.5386 1.76165 12.5214 1.67802 12.4879 1.60046C12.4543 1.5229 12.4052 1.45308 12.3435 1.39534C12.2818 1.33761 12.2088 1.2932 12.1292 1.26489C12.0496 1.23657 11.965 1.22496 11.8807 1.23077C11.7225 1.24511 11.5755 1.3187 11.4692 1.43681C11.363 1.55492 11.3052 1.70883 11.3076 1.86769V12C11.3076 12.0816 11.2752 12.1599 11.2175 12.2176C11.1598 12.2753 11.0815 12.3077 10.9999 12.3077H0.538405C0.4568 12.3077 0.378537 12.2753 0.320834 12.2176C0.26313 12.1599 0.230713 12.0816 0.230713 12V1.84615C0.230713 1.35652 0.425218 0.886947 0.771439 0.540726C1.11766 0.194505 1.58724 0 2.07687 0H11.923C12.4127 0 12.8822 0.194505 13.2284 0.540726C13.5747 0.886947 13.7692 1.35652 13.7692 1.84615ZM10.9999 13.5385H0.538405C0.4568 13.5385 0.378537 13.5709 0.320834 13.6286C0.26313 13.6863 0.230713 13.7645 0.230713 13.8462V14.7692C0.230713 15.0957 0.360383 15.4087 0.591197 15.6395C0.822011 15.8703 1.13506 16 1.46148 16H10.0769C10.4033 16 10.7163 15.8703 10.9472 15.6395C11.178 15.4087 11.3076 15.0957 11.3076 14.7692V13.8462C11.3076 13.7645 11.2752 13.6863 11.2175 13.6286C11.1598 13.5709 11.0815 13.5385 10.9999 13.5385Z" fill="white"/>
</svg>
