<svg width="16" height="16" viewBox="0 0 16 16" fill="none" xmlns="http://www.w3.org/2000/svg">
<g clip-path="url(#clip0_9352_6545)">
<path d="M14.5455 7.27264C13.0909 7.27264 12.3636 5.09082 10.1818 5.09082C8 5.09082 8 6.54537 8 6.54537C8 6.54537 8 5.09082 5.81818 5.09082C3.63636 5.09082 2.90909 7.27264 1.45455 7.27264C0.727273 7.27264 0 6.54537 0 6.54537C0 6.54537 0.727273 10.1817 3.63636 10.1817C7.27273 10.1817 8 7.99991 8 7.99991C8 7.99991 8.72727 10.1817 12.3636 10.1817C15.2727 10.1817 16 6.54537 16 6.54537C16 6.54537 15.2727 7.27264 14.5455 7.27264Z" fill="white"/>
</g>
<defs>
<clipPath id="clip0_9352_6545">
<rect width="16" height="16" fill="white"/>
</clipPath>
</defs>
</svg>
