<svg width="16" height="16" viewBox="0 0 16 16" fill="none" xmlns="http://www.w3.org/2000/svg">
<g clip-path="url(#clip0_9352_6539)">
<path fill-rule="evenodd" clip-rule="evenodd" d="M0.418765 2.43577C0.0340956 3.10011 -0.0913672 3.88323 0.0665055 4.63449C0.224378 5.38576 0.654438 6.05213 1.27398 6.50545C1.89351 6.95877 2.65878 7.16703 3.4226 7.09017C4.18642 7.01331 4.89485 6.65677 5.41165 6.0891L6.19654 6.54243C6.21876 6.62421 6.32721 6.64555 6.38321 6.58066C6.51713 6.42362 6.66528 6.28021 6.82765 6.15043C7.08188 5.94599 7.09432 5.52021 6.81165 5.35755L6.07832 4.93355C6.30766 4.20326 6.2598 3.41407 5.9439 2.71685C5.628 2.01962 5.06622 1.46328 4.36596 1.15418C3.66569 0.845079 2.87608 0.804902 2.14806 1.04133C1.42004 1.27776 0.804689 1.77421 0.419654 2.43577M2.2241 5.53088C2.02028 5.415 1.8414 5.25995 1.69776 5.07466C1.55411 4.88936 1.44853 4.67748 1.3871 4.45122C1.32567 4.22496 1.30961 3.98878 1.33983 3.75628C1.37005 3.52378 1.44596 3.29956 1.56319 3.09652C1.68041 2.89348 1.83665 2.71563 2.02289 2.57321C2.20913 2.4308 2.42171 2.32663 2.64837 2.2667C2.87504 2.20678 3.11132 2.19228 3.34361 2.22404C3.5759 2.2558 3.79962 2.33319 4.00188 2.45177C4.40687 2.68919 4.70151 3.07716 4.8215 3.53102C4.94149 3.98488 4.8771 4.46778 4.64236 4.87434C4.40763 5.28089 4.02162 5.5781 3.56857 5.7011C3.11552 5.8241 2.6322 5.76291 2.2241 5.53088ZM7.96276 6.49977C7.61968 6.64439 7.31416 6.86548 7.06953 7.14616C6.8249 7.42684 6.64761 7.7597 6.55121 8.11932L6.19743 9.44021L5.41165 9.89355C4.8939 9.32912 4.18619 8.97546 3.42397 8.90025C2.66176 8.82503 1.89857 9.03354 1.28049 9.48588C0.662403 9.93822 0.23284 10.6026 0.0740121 11.3519C-0.0848154 12.1011 0.0382499 12.8827 0.419654 13.5469C0.803045 14.2115 1.4185 14.711 2.14779 14.9494C2.87707 15.1878 3.66873 15.1483 4.37067 14.8385C5.07262 14.5287 5.63532 13.9705 5.95069 13.271C6.26605 12.5716 6.31182 11.7803 6.07921 11.0491L15.5725 5.56821C15.6864 5.5021 15.7782 5.40374 15.8363 5.28554C15.8943 5.16733 15.9161 5.03458 15.8988 4.90402C15.8815 4.77347 15.8259 4.65097 15.739 4.55197C15.6522 4.45298 15.538 4.38192 15.4108 4.34777L14.7859 4.17977C14.261 4.03935 13.7043 4.07782 13.2037 4.2891L7.96276 6.49977ZM1.57343 12.8802C1.45486 12.678 1.37746 12.4542 1.3457 12.2219C1.31394 11.9897 1.32844 11.7534 1.38837 11.5267C1.44829 11.3 1.55246 11.0875 1.69488 10.9012C1.83729 10.715 2.01514 10.5588 2.21818 10.4415C2.42122 10.3243 2.64545 10.2484 2.87794 10.2182C3.11044 10.1879 3.34662 10.204 3.57288 10.2654C3.79915 10.3269 4.01102 10.4324 4.19632 10.5761C4.38161 10.7197 4.53666 10.8986 4.65254 11.1024C4.88457 11.5105 4.94576 11.9939 4.82276 12.4469C4.69976 12.9 4.40255 13.286 3.996 13.5207C3.58944 13.7554 3.10655 13.8198 2.65269 13.6998C2.19883 13.5798 1.81085 13.2852 1.57343 12.8802Z" fill="white"/>
<path d="M10.2419 9.6715C10.1702 9.71285 10.1115 9.7734 10.0724 9.84633C10.0332 9.91926 10.0152 10.0017 10.0204 10.0843C10.0256 10.1669 10.0537 10.2464 10.1016 10.3139C10.1496 10.3813 10.2154 10.4341 10.2917 10.4662L13.2019 11.6937C13.7025 11.905 14.2592 11.9435 14.7841 11.8031L15.4099 11.6351C15.537 11.6007 15.651 11.5294 15.7377 11.4303C15.8243 11.3312 15.8797 11.2087 15.8968 11.0782C15.9139 10.9477 15.892 10.815 15.8338 10.6969C15.7757 10.5788 15.6838 10.4806 15.5699 10.4146L12.4854 8.63327C12.4179 8.59427 12.3412 8.57373 12.2632 8.57373C12.1852 8.57373 12.1086 8.59427 12.041 8.63327L10.2419 9.6715Z" fill="white"/>
</g>
<defs>
<clipPath id="clip0_9352_6539">
<rect width="16" height="16" fill="white"/>
</clipPath>
</defs>
</svg>
